/* XPM */
/* XPM */
"16 16 6 1",
"  c #000000",
". c None",
"X c #808080",
"o c #FFFFFF",
"O c #FFFF00",
"+ c #0000FF",
"O......O.......O",
".OO....OO....OO.",
"..O++++OO...OO..",
"...++++OO..OO...",
"...++++OO..O....",
"...++++OO.......",
"...++++++++.....",
".OO++++++++OOOOO",
"OOO++++++++OOOO.",
"...++++++++X....",
"....XOO++++X....",
"....OOO++++O....",
"...OOO.++++OO...",
"..OO...++++OOO..",
".OO....OOXXX.OO.",
"........O......O"
