/* XPM */
"16 16 6 1",
"  c #000000",
". c None",
"X c #808080",
"o c #FFFFFF",
"O c #FFFF00",
"+ c #0000FF",
"................",
"..  ...  ...  ..",
".. o... o... o..",
".. o..oooo.. o..",
".. o..oXX .. o..",
".. o..o   .. o..",
".. o... o..oooo.",
".. o... o..oXX .",
".oooo.. o..o   .",
".oXX .. o... o..",
".o   .. o... o..",
".. o... o... o..",
".. o... o... o..",
".. o... o... o..",
"..oo...oo...oo..",
"................"
