/* XPM */
"16 16 6 1",
"  c #000000",
". c None",
"X c #808080",
"o c #FFFFFF",
"O c #FFFF00",
"+ c #0000FF",
"................",
".             ..",
". ooooooooooo ..",
". o.........X ..",
". o.........X ..",
". o..     ..X ..",
". o..     ..X ..",
". o..     ..X ..",
". o..     ..X ..",
". o..     ..X ..",
". o.........X ..",
". o.........X ..",
". oXXXXXXXXXX ..",
".             ..",
"................",
"................"
